<svg width="512" height="512" viewBox="0 0 512 512" xmlns="http://www.w3.org/2000/svg">
  <defs>
    <linearGradient id="bgGradient" x1="0%" y1="0%" x2="100%" y2="100%">
      <stop offset="0%" style="stop-color:#3b82f6;stop-opacity:1" />
      <stop offset="100%" style="stop-color:#1e40af;stop-opacity:1" />
    </linearGradient>
    <linearGradient id="clipGradient" x1="0%" y1="0%" x2="0%" y2="100%">
      <stop offset="0%" style="stop-color:#ffffff;stop-opacity:0.95" />
      <stop offset="100%" style="stop-color:#dbeafe;stop-opacity:0.9" />
    </linearGradient>
    <filter id="shadow">
      <feDropShadow dx="0" dy="4" stdDeviation="8" flood-opacity="0.3"/>
    </filter>
  </defs>
  <rect width="512" height="512" rx="115" fill="url(#bgGradient)"/>
  <g filter="url(#shadow)">
    <rect x="140" y="120" width="232" height="300" rx="20" fill="url(#clipGradient)"/>
    <rect x="210" y="100" width="92" height="40" rx="8" fill="#2563eb"/>
    <rect x="220" y="105" width="72" height="30" rx="6" fill="#1d4ed8"/>
    <rect x="180" y="180" width="152" height="12" rx="6" fill="#3b82f6" opacity="0.3"/>
    <rect x="180" y="210" width="120" height="12" rx="6" fill="#3b82f6" opacity="0.3"/>
    <rect x="180" y="240" width="140" height="12" rx="6" fill="#3b82f6" opacity="0.3"/>
    <g opacity="0.4">
      <rect x="180" y="300" width="40" height="40" rx="8" fill="#2563eb"/>
      <rect x="236" y="300" width="40" height="40" rx="8" fill="#2563eb"/>
      <rect x="292" y="300" width="40" height="40" rx="8" fill="#2563eb"/>
    </g>
    <circle cx="340" cy="160" r="16" fill="#60a5fa"/>
  </g>
</svg>
